<?xml version="1.0" encoding="UTF-8"?>
<svg version="1.1" xmlns="http://www.w3.org/2000/svg" width="101" height="100">
<path d="M0 0 C8.30818901 6.96649389 12.85120565 16.31674246 14.12890625 27.02734375 C14.64858763 38.71179295 10.40787979 47.77676704 2.8125 56.375 C2.25820312 57.05949219 1.70390625 57.74398437 1.1328125 58.44921875 C-2.77036908 63.23595636 -2.77036908 63.23595636 -6.1875 64.375 C-6.8475 65.035 -7.5075 65.695 -8.1875 66.375 C-9.14398438 66.93832031 -10.10046875 67.50164062 -11.0859375 68.08203125 C-14.70270483 70.7558882 -15.90502158 73.02605869 -17.8125 77.0625 C-20.71271397 83.18290459 -20.71271397 83.18290459 -23.3984375 84.26953125 C-23.98882812 84.30433594 -24.57921875 84.33914062 -25.1875 84.375 C-28.11711613 80.72359439 -29.89872935 76.86553274 -31.80859375 72.6171875 C-33.37788517 70.06542184 -34.47742409 69.50644322 -37.1875 68.375 C-37.8475 67.715 -38.5075 67.055 -39.1875 66.375 C-39.785625 65.941875 -40.38375 65.50875 -41 65.0625 C-50.75678246 57.53583925 -58.73974595 47.61377027 -61.1875 35.375 C-62.25765434 24.08973607 -59.51468187 14.66823409 -52.9453125 5.44140625 C-38.88023937 -11.09286861 -17.04677176 -12.55677384 0 0 Z M-31.75 19.375 C-32.36552734 19.85195313 -32.98105469 20.32890625 -33.61523438 20.8203125 C-35.14098618 22.00306584 -36.66445559 23.18876235 -38.1875 24.375 C-37.1975 24.87 -37.1975 24.87 -36.1875 25.375 C-36.1875 30.985 -36.1875 36.595 -36.1875 42.375 C-33.5475 42.375 -30.9075 42.375 -28.1875 42.375 C-27.8575 39.075 -27.5275 35.775 -27.1875 32.375 C-24.8775 32.375 -22.5675 32.375 -20.1875 32.375 C-19.8575 35.345 -19.5275 38.315 -19.1875 41.375 C-16.5475 41.705 -13.9075 42.035 -11.1875 42.375 C-11.1875 36.765 -11.1875 31.155 -11.1875 25.375 C-10.5275 25.045 -9.8675 24.715 -9.1875 24.375 C-10.74365009 23.07569021 -12.3077168 21.78585862 -13.875 20.5 C-14.74511719 19.78070313 -15.61523438 19.06140625 -16.51171875 18.3203125 C-23.54169359 13.20946948 -25.38920565 14.41505498 -31.75 19.375 Z " fill="#000000" transform="translate(74.1875,13.625)"/>
<path d="" fill="#000000" transform="translate(0,0)"/>
<path d="" fill="#000000" transform="translate(0,0)"/>
<path d="" fill="#000000" transform="translate(0,0)"/>
<path d="" fill="#000000" transform="translate(0,0)"/>
<path d="" fill="#000000" transform="translate(0,0)"/>
<path d="" fill="#000000" transform="translate(0,0)"/>
<path d="" fill="#000000" transform="translate(0,0)"/>
<path d="" fill="#000000" transform="translate(0,0)"/>
<path d="" fill="#000000" transform="translate(0,0)"/>
<path d="" fill="#000000" transform="translate(0,0)"/>
</svg>
